<svg width="520" height="160" viewBox="0 0 520 160" fill="none" xmlns="http://www.w3.org/2000/svg">
  <rect width="520" height="160" rx="36" fill="#020617"/>
  <g transform="translate(38 32) scale(1.5)">
    <defs>
      <linearGradient id="bg" x1="7" y1="6" x2="57" y2="59" gradientUnits="userSpaceOnUse">
        <stop stop-color="#0EA5E9"/>
        <stop offset="0.54" stop-color="#22D3EE"/>
        <stop offset="1" stop-color="#34D399"/>
      </linearGradient>
      <linearGradient id="face" x1="17" y1="14" x2="48" y2="49" gradientUnits="userSpaceOnUse">
        <stop stop-color="#FFFFFF"/>
        <stop offset="1" stop-color="#E0F2FE"/>
      </linearGradient>
    </defs>
    <rect x="4" y="4" width="56" height="56" rx="18" fill="url(#bg)"/>
    <path d="M15 33C11.8 33 9.2 35.6 9.2 38.8V41.5" stroke="#E0F2FE" stroke-width="3.2" stroke-linecap="round" opacity="0.95"/>
    <path d="M49 33C52.2 33 54.8 35.6 54.8 38.8V41.5" stroke="#E0F2FE" stroke-width="3.2" stroke-linecap="round" opacity="0.95"/>
    <rect x="15" y="16" width="34" height="32" rx="13" fill="url(#face)"/>
    <path d="M22 16L26.2 10.8" stroke="#F8FAFC" stroke-width="3" stroke-linecap="round"/>
    <rect x="21.5" y="26.4" width="11.5" height="9.2" rx="3.2" stroke="#0F172A" stroke-width="2.4"/>
    <rect x="35" y="26.4" width="11.5" height="9.2" rx="3.2" stroke="#0F172A" stroke-width="2.4"/>
    <path d="M33 31H35" stroke="#0F172A" stroke-width="2.4" stroke-linecap="round"/>
    <circle cx="27.2" cy="31" r="1.8" fill="#0F172A"/>
    <circle cx="40.7" cy="31" r="1.8" fill="#0F172A"/>
    <path d="M28.5 39C31 41 35 41 37.5 39" stroke="#0F172A" stroke-width="2.7" stroke-linecap="round"/>
    <path d="M17 25H11.5" stroke="#0F172A" stroke-width="3.5" stroke-linecap="round" opacity="0.5"/>
    <path d="M52.5 25H47" stroke="#0F172A" stroke-width="3.5" stroke-linecap="round" opacity="0.5"/>
    <path d="M46 44L53 51" stroke="#0F172A" stroke-width="3" stroke-linecap="round" opacity="0.35"/>
    <circle cx="54.5" cy="52.5" r="3.5" fill="#F8FAFC"/>
    <path d="M32 48V54" stroke="#F8FAFC" stroke-width="3" stroke-linecap="round"/>
    <path d="M26 54H38" stroke="#F8FAFC" stroke-width="3" stroke-linecap="round"/>
  </g>
  <text x="154" y="82" fill="#F8FAFC" font-family="Inter, Arial, sans-serif" font-size="52" font-weight="900" letter-spacing="-2">Job</text>
  <text x="244" y="82" fill="#22D3EE" font-family="Inter, Arial, sans-serif" font-size="52" font-weight="900" letter-spacing="-2">PA</text>
  <text x="157" y="112" fill="#94A3B8" font-family="Inter, Arial, sans-serif" font-size="18" font-weight="700">Agentic Career Assistant</text>
</svg>
